<svg id="svg" version="1.1" xmlns="http://www.w3.org/2000/svg" xmlns:xlink="http://www.w3.org/1999/xlink" width="400" height="400" viewBox="0, 0, 400,400"><g id="svgg"><path id="path0" d="M206.159 228.000 C 206.159 231.190,206.221 232.495,206.297 230.900 C 206.373 229.305,206.373 226.695,206.297 225.100 C 206.221 223.505,206.159 224.810,206.159 228.000 M154.600 235.324 C 146.728 245.058,145.016 251.345,145.277 269.557 C 145.415 279.149,145.137 278.380,148.762 279.210 C 164.981 282.926,173.574 296.037,173.593 317.100 L 173.600 324.800 168.800 324.800 L 164.000 324.800 164.000 316.420 C 164.000 304.108,162.816 300.418,156.999 294.601 C 147.327 284.929,132.525 285.273,123.283 295.386 C 118.555 300.558,117.200 305.352,117.200 316.900 L 117.200 324.800 112.565 324.800 L 107.930 324.800 108.089 314.500 C 108.304 300.561,110.265 294.938,117.401 287.801 C 121.750 283.453,130.624 278.800,134.570 278.800 C 135.967 278.800,136.000 278.506,136.000 266.198 C 136.000 259.474,136.180 253.994,136.442 252.731 C 137.597 247.163,138.169 245.149,139.489 242.000 C 140.273 240.130,141.068 238.429,141.257 238.220 C 141.987 237.411,141.622 236.400,140.600 236.400 C 140.050 236.400,139.600 236.580,139.600 236.800 C 139.600 237.020,139.060 237.200,138.400 237.200 C 137.740 237.200,137.200 237.380,137.200 237.600 C 137.200 237.820,136.660 238.000,136.000 238.000 C 135.340 238.000,134.800 238.180,134.800 238.400 C 134.800 238.620,134.440 238.800,134.000 238.800 C 133.560 238.800,133.200 238.980,133.200 239.200 C 133.200 239.420,132.660 239.600,132.000 239.600 C 131.340 239.600,130.800 239.780,130.800 240.000 C 130.800 240.220,130.528 240.400,130.195 240.400 C 129.862 240.400,129.277 240.565,128.895 240.766 C 127.012 241.757,123.511 243.200,122.989 243.200 C 122.665 243.200,122.400 243.380,122.400 243.600 C 122.400 243.820,122.055 244.000,121.633 244.000 C 121.212 244.000,120.807 244.135,120.733 244.300 C 120.576 244.653,115.653 247.200,115.127 247.200 C 114.929 247.200,114.380 247.560,113.908 248.000 C 113.436 248.440,112.813 248.800,112.525 248.800 C 112.236 248.800,112.000 248.980,112.000 249.200 C 112.000 249.420,111.730 249.600,111.400 249.600 C 111.070 249.600,110.800 249.780,110.800 250.000 C 110.800 250.220,110.557 250.400,110.259 250.400 C 109.962 250.400,109.154 250.940,108.463 251.600 C 107.772 252.260,106.975 252.800,106.692 252.800 C 106.409 252.800,105.917 253.160,105.600 253.600 C 105.283 254.040,104.775 254.400,104.472 254.400 C 104.169 254.400,103.417 254.940,102.800 255.600 C 102.183 256.260,101.457 256.800,101.186 256.800 C 100.916 256.800,100.403 257.116,100.047 257.502 C 99.691 257.888,98.500 258.921,97.400 259.798 C 94.918 261.777,84.800 271.862,84.800 272.356 C 84.800 272.556,83.901 273.637,82.802 274.759 C 81.703 275.882,80.912 276.800,81.043 276.800 C 81.175 276.800,80.769 277.387,80.141 278.104 C 79.514 278.821,78.373 280.396,77.607 281.604 C 76.841 282.812,76.076 283.860,75.907 283.933 C 75.738 284.007,75.600 284.412,75.600 284.833 C 75.600 285.255,75.420 285.600,75.200 285.600 C 74.980 285.600,74.800 285.960,74.800 286.400 C 74.800 286.840,74.647 287.200,74.460 287.200 C 74.273 287.200,73.509 288.415,72.762 289.900 C 72.015 291.385,71.268 292.660,71.102 292.733 C 70.936 292.807,70.800 293.116,70.800 293.421 C 70.800 293.726,70.440 294.617,70.000 295.400 C 69.560 296.183,69.200 297.089,69.200 297.412 C 69.200 297.735,69.020 298.000,68.800 298.000 C 68.580 298.000,68.400 298.450,68.400 299.000 C 68.400 299.550,68.220 300.000,68.000 300.000 C 67.780 300.000,67.600 300.450,67.600 301.000 C 67.600 301.550,67.420 302.000,67.200 302.000 C 66.980 302.000,66.800 302.540,66.800 303.200 C 66.800 303.860,66.620 304.400,66.400 304.400 C 66.180 304.400,66.000 304.940,66.000 305.600 C 66.000 306.260,65.820 306.800,65.600 306.800 C 65.380 306.800,65.200 307.419,65.200 308.176 C 65.200 308.933,65.040 309.652,64.844 309.773 C 64.497 309.987,64.268 310.947,63.787 314.200 C 63.657 315.080,63.390 316.160,63.194 316.600 C 62.518 318.120,62.316 321.854,62.148 335.900 L 61.980 350.000 79.390 350.000 L 96.800 350.000 96.800 369.000 L 96.800 388.000 171.000 388.000 L 245.200 388.000 245.200 386.324 C 245.200 378.582,250.046 366.795,256.290 359.352 C 258.182 357.097,258.219 357.221,255.200 355.623 C 250.354 353.057,245.025 348.981,239.400 343.536 L 235.400 339.664 233.872 341.432 C 225.020 351.675,208.526 346.991,206.373 333.624 C 205.319 327.081,208.826 320.277,214.745 317.380 L 217.157 316.200 217.171 286.400 C 217.185 255.823,217.217 256.648,215.726 249.095 C 215.606 248.487,215.349 247.892,215.154 247.771 C 214.959 247.651,214.800 247.291,214.800 246.972 C 214.800 245.353,210.847 238.656,208.087 235.600 L 206.462 233.800 205.806 235.347 C 205.445 236.198,204.151 238.988,202.931 241.547 C 201.711 244.106,200.264 247.190,199.716 248.400 C 199.168 249.610,198.018 252.085,197.160 253.900 C 195.616 257.166,194.768 258.956,190.035 268.933 C 188.696 271.756,187.600 274.124,187.600 274.195 C 187.600 274.266,186.545 276.547,185.257 279.262 C 183.968 281.978,182.664 284.785,182.359 285.500 C 181.597 287.288,180.969 287.131,179.963 284.900 C 179.492 283.855,178.122 280.930,176.918 278.400 C 175.715 275.870,174.274 272.810,173.717 271.600 C 172.736 269.472,170.834 265.439,167.871 259.200 C 162.180 247.218,156.670 235.234,156.456 234.373 C 156.204 233.361,156.176 233.375,154.600 235.324 M220.800 236.811 C 220.800 237.038,221.335 238.283,221.989 239.579 C 226.462 248.439,226.800 251.821,226.800 287.690 L 226.800 316.211 228.326 316.872 C 229.165 317.236,230.673 318.161,231.678 318.928 L 233.505 320.322 235.324 316.461 C 238.824 309.030,238.750 309.471,237.472 303.600 C 236.872 300.845,236.254 296.764,235.599 291.236 C 234.315 280.404,235.761 263.794,238.211 261.241 C 240.130 259.240,250.213 265.319,257.989 273.164 C 262.583 277.799,262.460 277.753,265.711 276.054 C 267.759 274.984,271.526 273.694,275.300 272.770 C 276.345 272.514,277.200 272.175,277.200 272.017 C 277.200 271.083,267.372 261.235,264.716 259.508 C 264.131 259.127,263.198 258.362,262.644 257.808 C 262.090 257.254,261.430 256.800,261.179 256.800 C 260.927 256.800,260.217 256.260,259.600 255.600 C 258.983 254.940,258.281 254.400,258.040 254.400 C 257.798 254.400,257.600 254.250,257.600 254.068 C 257.600 253.885,257.105 253.480,256.500 253.168 C 255.895 252.855,255.051 252.285,254.625 251.900 C 254.198 251.515,253.613 251.200,253.325 251.200 C 253.036 251.200,252.800 251.050,252.800 250.868 C 252.800 250.685,252.305 250.280,251.700 249.968 C 251.095 249.656,250.510 249.311,250.400 249.201 C 250.006 248.805,247.787 247.546,247.100 247.329 C 246.715 247.207,246.400 246.948,246.400 246.753 C 246.400 246.559,246.040 246.400,245.600 246.400 C 245.160 246.400,244.800 246.220,244.800 246.000 C 244.800 245.780,244.440 245.600,244.000 245.600 C 243.560 245.600,243.200 245.420,243.200 245.200 C 243.200 244.980,242.855 244.800,242.433 244.800 C 242.012 244.800,241.607 244.658,241.533 244.484 C 241.353 244.057,236.928 242.000,236.189 242.000 C 235.865 242.000,235.600 241.820,235.600 241.600 C 235.600 241.380,235.161 241.200,234.624 241.200 C 234.087 241.200,233.536 241.020,233.400 240.800 C 233.264 240.580,232.803 240.400,232.376 240.400 C 231.949 240.400,231.600 240.220,231.600 240.000 C 231.600 239.780,231.060 239.600,230.400 239.600 C 229.740 239.600,229.200 239.420,229.200 239.200 C 229.200 238.980,228.840 238.800,228.400 238.800 C 227.960 238.800,227.600 238.620,227.600 238.400 C 227.600 238.180,227.060 238.000,226.400 238.000 C 225.740 238.000,225.200 237.820,225.200 237.600 C 225.200 237.380,224.660 237.200,224.000 237.200 C 223.340 237.200,222.800 237.020,222.800 236.800 C 222.800 236.580,222.350 236.400,221.800 236.400 C 221.250 236.400,220.800 236.585,220.800 236.811 M218.600 320.800 L 217.800 321.144 218.600 321.132 C 219.040 321.126,219.850 320.976,220.400 320.800 L 221.400 320.480 220.400 320.468 C 219.850 320.462,219.040 320.611,218.600 320.800 M222.433 320.547 C 222.525 320.628,223.320 320.814,224.200 320.962 C 225.346 321.154,225.630 321.114,225.200 320.821 C 224.660 320.453,222.032 320.193,222.433 320.547 M216.600 321.664 C 215.199 322.435,212.768 324.958,212.231 326.200 C 210.981 329.093,210.800 329.725,210.800 331.204 C 210.800 335.911,215.844 342.079,219.600 341.964 C 219.930 341.954,219.750 341.754,219.200 341.519 C 218.650 341.284,217.660 340.857,217.000 340.571 C 214.041 339.287,211.200 334.661,211.200 331.124 C 211.200 329.714,211.379 329.100,212.655 326.143 C 213.178 324.929,214.747 323.335,216.809 321.921 C 217.930 321.153,217.806 321.001,216.600 321.664 M226.000 321.371 C 226.000 321.465,226.585 321.823,227.300 322.166 L 228.600 322.792 227.656 321.996 C 226.782 321.260,226.000 320.964,226.000 321.371 M228.800 322.967 C 228.800 323.388,230.005 324.528,230.221 324.312 C 230.322 324.211,230.044 323.802,229.602 323.402 C 229.161 323.003,228.800 322.807,228.800 322.967 M117.107 334.700 C 117.003 343.955,116.979 344.196,116.200 344.049 C 114.180 343.669,109.873 343.567,109.549 343.891 C 109.335 344.105,110.150 344.182,111.555 344.081 C 123.242 343.235,126.143 360.013,114.707 362.310 C 104.034 364.453,98.268 349.506,108.000 344.925 C 108.550 344.666,108.775 344.442,108.500 344.427 C 108.115 344.406,108.000 342.199,108.000 334.800 L 108.000 325.200 112.607 325.200 L 117.214 325.200 117.107 334.700 M173.200 334.767 C 173.200 342.046,173.080 344.382,172.700 344.535 C 172.401 344.656,172.481 344.750,172.899 344.768 C 174.204 344.827,176.729 347.564,177.583 349.846 C 181.921 361.440,164.857 367.930,159.975 356.543 C 158.171 352.332,160.191 346.749,164.146 345.015 C 164.836 344.713,165.175 344.451,164.900 344.433 C 164.515 344.407,164.400 342.196,164.400 334.800 L 164.400 325.200 168.800 325.200 L 173.200 325.200 173.200 334.767 M230.650 337.197 C 229.491 338.948,227.074 340.731,224.837 341.484 L 223.400 341.969 224.794 341.732 C 227.081 341.343,230.280 338.923,231.444 336.700 C 232.285 335.095,231.868 335.356,230.650 337.197 M221.300 342.276 C 221.685 342.376,222.315 342.376,222.700 342.276 C 223.085 342.175,222.770 342.093,222.000 342.093 C 221.230 342.093,220.915 342.175,221.300 342.276 M165.862 343.900 C 165.760 344.065,167.082 344.200,168.800 344.200 C 170.518 344.200,171.840 344.065,171.738 343.900 C 171.636 343.735,170.314 343.600,168.800 343.600 C 167.286 343.600,165.964 343.735,165.862 343.900 M109.428 349.747 C 108.138 350.964,107.414 352.409,108.400 351.800 C 108.620 351.664,108.800 351.291,108.800 350.971 C 108.800 350.119,111.189 348.803,112.740 348.801 C 114.541 348.799,116.800 350.988,116.800 352.734 C 116.800 357.854,110.656 359.387,108.520 354.800 C 108.250 354.221,108.043 354.057,108.027 354.411 C 107.859 358.212,115.098 358.975,116.759 355.331 C 118.954 350.513,113.235 346.157,109.428 349.747 M166.116 349.300 C 163.168 351.383,163.368 355.295,166.519 357.216 C 168.778 358.594,171.350 357.885,172.816 355.481 C 175.381 351.274,170.149 346.449,166.116 349.300 M170.813 349.407 C 174.698 351.416,173.178 357.600,168.800 357.600 C 167.445 357.600,165.660 356.477,165.007 355.213 C 163.029 351.388,166.988 347.429,170.813 349.407 " stroke="none" fill="#8bb3e3" fill-rule="evenodd"></path><path id="path1" d="M93.200 27.576 C 93.200 33.263,93.352 36.847,93.600 37.000 C 93.820 37.136,94.000 38.036,94.000 39.000 C 94.000 39.964,94.180 40.864,94.400 41.000 C 94.620 41.136,94.800 41.867,94.800 42.624 C 94.800 43.381,94.980 44.000,95.200 44.000 C 95.420 44.000,95.600 44.540,95.600 45.200 C 95.600 45.860,95.780 46.400,96.000 46.400 C 96.220 46.400,96.400 46.839,96.400 47.376 C 96.400 47.913,96.580 48.464,96.800 48.600 C 97.020 48.736,97.200 49.197,97.200 49.624 C 97.200 50.051,97.380 50.400,97.600 50.400 C 97.820 50.400,98.000 50.760,98.000 51.200 C 98.000 51.640,98.180 52.000,98.400 52.000 C 98.620 52.000,98.800 52.360,98.800 52.800 C 98.800 53.240,98.980 53.600,99.200 53.600 C 99.420 53.600,99.600 53.960,99.600 54.400 C 99.600 54.840,99.780 55.200,100.000 55.200 C 100.220 55.200,100.400 55.470,100.400 55.800 C 100.400 56.130,100.550 56.400,100.732 56.400 C 100.915 56.400,101.320 56.892,101.632 57.493 C 101.945 58.094,102.695 59.111,103.300 59.752 C 103.905 60.394,104.400 61.084,104.400 61.285 C 104.400 61.487,105.329 62.557,106.464 63.663 C 107.600 64.769,108.364 65.792,108.164 65.937 C 107.963 66.081,107.544 66.695,107.232 67.300 C 106.920 67.905,106.515 68.400,106.332 68.400 C 106.150 68.400,106.000 68.760,106.000 69.200 C 106.000 69.640,105.865 70.001,105.700 70.003 C 105.341 70.007,104.400 71.944,104.400 72.680 C 104.400 72.966,104.220 73.200,104.000 73.200 C 103.780 73.200,103.600 73.560,103.600 74.000 C 103.600 74.440,103.420 74.800,103.200 74.800 C 102.980 74.800,102.800 75.160,102.800 75.600 C 102.800 76.040,102.620 76.400,102.400 76.400 C 102.180 76.400,102.000 76.850,102.000 77.400 C 102.000 77.950,101.820 78.400,101.600 78.400 C 101.380 78.400,101.200 79.019,101.200 79.776 C 101.200 80.533,101.020 81.264,100.800 81.400 C 100.580 81.536,100.400 82.357,100.400 83.224 C 100.400 84.091,100.220 84.800,100.000 84.800 C 99.738 84.800,99.600 92.867,99.600 108.200 C 99.600 134.884,99.194 132.443,103.329 130.615 C 104.554 130.073,107.097 129.407,108.978 129.134 L 112.400 128.640 112.401 125.420 C 112.403 112.394,118.059 102.619,130.600 93.969 C 133.612 91.891,141.848 86.800,142.197 86.800 C 142.285 86.800,143.402 86.194,144.679 85.454 C 146.823 84.211,149.867 82.495,151.802 81.438 C 155.109 79.632,161.859 75.343,164.917 73.105 C 166.943 71.623,168.892 70.234,169.249 70.018 C 169.783 69.696,170.299 70.230,172.165 73.034 C 181.939 87.721,197.493 98.894,214.600 103.517 C 222.601 105.679,228.949 106.400,239.994 106.400 L 247.449 106.400 247.924 108.400 C 249.469 114.897,250.000 118.900,250.000 124.057 L 250.000 128.623 253.300 129.077 C 255.115 129.327,257.500 129.921,258.600 130.396 C 261.112 131.482,263.060 131.796,262.408 131.010 C 262.100 130.639,262.091 130.391,262.381 130.212 C 262.950 129.860,262.969 82.400,262.400 82.400 C 262.180 82.400,262.000 81.421,262.000 80.224 C 262.000 79.027,261.820 77.936,261.600 77.800 C 261.380 77.664,261.200 76.933,261.200 76.176 C 261.200 75.419,261.020 74.800,260.800 74.800 C 260.580 74.800,260.400 74.080,260.400 73.200 C 260.400 72.320,260.220 71.600,260.000 71.600 C 259.780 71.600,259.600 71.060,259.600 70.400 C 259.600 69.740,259.420 69.200,259.200 69.200 C 258.980 69.200,258.799 68.705,258.798 68.100 C 258.796 67.495,258.526 66.484,258.198 65.854 C 257.869 65.224,257.600 64.538,257.600 64.329 C 257.600 63.744,255.081 58.617,254.720 58.467 C 254.544 58.393,254.400 57.988,254.400 57.567 C 254.400 57.145,254.220 56.800,254.000 56.800 C 253.780 56.800,253.600 56.564,253.600 56.275 C 253.600 55.987,253.240 55.364,252.800 54.892 C 252.360 54.420,252.000 53.796,252.000 53.505 C 252.000 53.214,251.640 52.717,251.200 52.400 C 250.760 52.083,250.400 51.543,250.400 51.200 C 250.400 50.857,250.040 50.317,249.600 50.000 C 249.160 49.683,248.800 49.175,248.800 48.872 C 248.800 48.569,248.304 47.844,247.698 47.260 C 247.093 46.677,245.968 45.349,245.198 44.310 C 244.429 43.270,243.525 42.326,243.189 42.211 C 242.853 42.097,242.313 41.618,241.989 41.148 C 241.002 39.716,236.872 35.600,236.422 35.600 C 236.190 35.600,236.000 35.420,236.000 35.200 C 236.000 34.980,235.802 34.800,235.560 34.800 C 235.319 34.800,234.617 34.260,234.000 33.600 C 233.383 32.940,232.631 32.400,232.328 32.400 C 232.025 32.400,231.517 32.040,231.200 31.600 C 230.883 31.160,230.343 30.800,230.000 30.800 C 229.657 30.800,229.117 30.440,228.800 30.000 C 228.483 29.560,227.903 29.200,227.512 29.200 C 227.120 29.200,226.800 29.032,226.800 28.827 C 226.800 28.622,226.441 28.340,226.002 28.201 C 225.564 28.062,224.979 27.728,224.702 27.459 C 224.025 26.801,219.726 24.800,218.989 24.800 C 218.665 24.800,218.400 24.620,218.400 24.400 C 218.400 24.180,217.860 24.000,217.200 24.000 C 216.540 24.000,216.000 23.820,216.000 23.600 C 216.000 23.380,215.640 23.200,215.200 23.200 C 214.760 23.200,214.400 23.020,214.400 22.800 C 214.400 22.580,213.860 22.400,213.200 22.400 C 212.540 22.400,212.000 22.220,212.000 22.000 C 212.000 21.780,211.460 21.600,210.800 21.600 C 210.140 21.600,209.600 21.420,209.600 21.200 C 209.600 20.980,208.970 20.800,208.200 20.800 C 207.430 20.800,206.800 20.620,206.800 20.400 C 206.800 20.180,206.091 20.000,205.224 20.000 C 204.357 20.000,203.536 19.820,203.400 19.600 C 203.264 19.380,202.173 19.200,200.976 19.200 C 199.779 19.200,198.800 19.020,198.800 18.800 C 198.800 18.535,180.933 18.400,146.000 18.400 L 93.200 18.400 93.200 27.576 M136.200 110.383 C 131.624 111.526,126.974 113.759,124.055 116.215 C 120.553 119.162,123.405 123.365,127.328 121.037 C 139.251 113.960,148.478 113.735,158.683 120.272 C 162.375 122.638,164.960 122.095,164.960 118.955 C 164.960 113.055,146.970 107.692,136.200 110.383 M210.472 110.603 C 203.448 112.418,197.600 116.309,197.600 119.167 C 197.600 122.106,200.391 122.685,203.586 120.410 C 205.357 119.149,208.825 117.422,210.600 116.918 C 214.635 115.771,215.702 115.600,218.800 115.600 C 221.898 115.600,222.965 115.771,227.000 116.918 C 228.762 117.419,232.239 119.146,233.979 120.385 C 237.251 122.715,239.979 122.041,239.994 118.900 C 240.023 112.819,221.758 107.686,210.472 110.603 M139.762 129.161 C 138.862 129.570,137.540 130.602,136.825 131.453 C 128.947 140.837,142.560 152.666,150.655 143.470 C 157.261 135.965,148.917 125.004,139.762 129.161 M214.968 129.159 C 207.584 132.513,207.889 143.036,215.464 146.201 C 221.237 148.613,228.018 143.906,227.991 137.504 C 227.964 130.917,220.968 126.434,214.968 129.159 M163.022 188.700 C 163.191 189.085,163.409 190.120,163.506 191.000 C 163.603 191.880,163.844 192.771,164.041 192.980 C 164.238 193.189,164.400 193.774,164.400 194.280 C 164.400 194.786,164.536 195.200,164.702 195.200 C 164.869 195.200,165.261 195.785,165.575 196.500 C 166.311 198.179,170.621 202.489,172.300 203.225 C 173.015 203.539,173.600 203.931,173.600 204.098 C 173.600 204.264,174.014 204.400,174.520 204.400 C 175.026 204.400,175.611 204.562,175.820 204.759 C 176.963 205.839,186.800 205.841,186.800 204.761 C 186.800 204.563,187.162 204.400,187.605 204.400 C 188.446 204.400,189.783 203.755,190.713 202.900 C 191.012 202.625,191.410 202.400,191.596 202.400 C 193.610 202.400,198.137 195.301,198.993 190.800 C 199.140 190.030,199.348 189.085,199.457 188.700 C 199.642 188.041,198.583 188.000,181.184 188.000 C 163.743 188.000,162.732 188.039,163.022 188.700 M217.200 316.732 C 208.618 319.924,204.413 328.704,207.637 336.700 C 208.634 339.173,209.170 339.970,211.200 342.000 C 213.818 344.618,215.353 345.427,219.538 346.398 C 223.637 347.348,229.109 345.566,232.550 342.159 C 235.526 339.213,235.523 339.237,233.269 336.805 L 232.339 335.800 231.685 336.800 C 230.684 338.330,228.295 340.537,226.979 341.147 C 226.331 341.447,225.487 341.852,225.105 342.047 C 221.102 344.083,213.772 340.505,211.624 335.467 C 206.968 324.545,221.312 314.904,229.643 323.355 C 231.258 324.994,231.422 324.931,232.771 322.157 C 233.476 320.708,233.478 320.610,232.813 320.215 C 232.427 319.987,231.400 319.303,230.530 318.696 C 226.841 316.121,221.112 315.277,217.200 316.732 M262.719 319.455 C 257.131 322.403,259.232 331.193,265.526 331.199 C 268.207 331.201,270.392 329.741,271.435 327.251 C 273.603 322.076,267.722 316.816,262.719 319.455 M306.343 319.663 C 302.285 322.016,302.168 327.858,306.133 330.182 C 311.692 333.440,317.881 327.567,314.753 322.002 C 313.088 319.039,309.257 317.974,306.343 319.663 M108.911 344.859 C 103.283 347.589,101.880 354.510,105.986 359.295 C 106.931 360.397,107.802 360.896,110.740 362.018 C 113.136 362.934,117.142 361.461,119.484 358.803 C 125.525 351.950,117.126 340.874,108.911 344.859 M165.600 344.741 C 162.371 346.376,161.219 347.647,160.106 350.800 C 158.103 356.476,165.170 364.364,170.203 362.072 C 170.772 361.812,171.601 361.600,172.045 361.600 C 173.094 361.600,177.200 357.494,177.200 356.445 C 177.200 356.001,177.412 355.172,177.672 354.603 C 180.125 349.219,171.183 341.914,165.600 344.741 M115.840 349.760 C 118.820 352.740,116.844 358.000,112.745 358.000 C 109.696 358.000,107.600 356.044,107.600 353.200 C 107.600 348.878,112.791 346.711,115.840 349.760 M172.187 349.813 C 175.306 352.932,173.193 358.000,168.773 358.000 C 164.353 358.000,162.231 352.763,165.428 349.747 C 167.522 347.772,170.172 347.798,172.187 349.813 " stroke="none" fill="#6e3d28" fill-rule="evenodd"></path><path id="path2" d="M166.000 72.449 C 164.606 73.671,164.605 73.672,165.888 72.819 C 166.596 72.348,167.282 71.791,167.412 71.581 C 167.797 70.957,167.477 71.154,166.000 72.449 M158.100 77.646 C 156.737 78.519,156.295 79.106,157.500 78.443 C 158.418 77.939,159.856 76.827,159.600 76.819 C 159.490 76.816,158.815 77.188,158.100 77.646 M177.200 80.125 C 177.200 80.194,177.785 80.779,178.500 81.425 L 179.800 82.600 178.625 81.300 C 177.530 80.088,177.200 79.816,177.200 80.125 M122.386 100.700 L 120.200 103.000 122.500 100.814 C 124.637 98.782,124.983 98.400,124.686 98.400 C 124.624 98.400,123.589 99.435,122.386 100.700 M217.000 104.400 C 217.440 104.589,218.070 104.744,218.400 104.744 C 218.778 104.744,218.704 104.617,218.200 104.400 C 217.760 104.211,217.130 104.056,216.800 104.056 C 216.422 104.056,216.496 104.183,217.000 104.400 M220.600 105.200 C 221.040 105.389,221.760 105.538,222.200 105.532 C 222.843 105.523,222.804 105.457,222.000 105.200 C 220.632 104.762,219.581 104.762,220.600 105.200 M227.700 106.287 C 228.305 106.378,229.295 106.378,229.900 106.287 C 230.505 106.195,230.010 106.120,228.800 106.120 C 227.590 106.120,227.095 106.195,227.700 106.287 M141.715 109.496 C 142.988 109.576,144.968 109.575,146.115 109.494 C 147.262 109.414,146.220 109.349,143.800 109.350 C 141.380 109.351,140.442 109.416,141.715 109.496 M216.700 109.495 C 217.855 109.576,219.745 109.576,220.900 109.495 C 222.055 109.414,221.110 109.348,218.800 109.348 C 216.490 109.348,215.545 109.414,216.700 109.495 M210.000 110.418 C 209.562 110.715,209.724 110.752,210.600 110.556 C 212.071 110.227,212.390 109.998,211.367 110.006 C 210.945 110.009,210.330 110.195,210.000 110.418 M248.456 112.000 C 248.456 112.330,248.611 112.960,248.800 113.400 C 249.017 113.904,249.144 113.978,249.144 113.600 C 249.144 113.270,248.989 112.640,248.800 112.200 C 248.583 111.696,248.456 111.622,248.456 112.000 M123.227 116.571 C 122.725 117.106,122.409 117.781,122.526 118.071 C 122.689 118.482,122.744 118.471,122.768 118.026 C 122.786 117.710,123.191 117.035,123.670 116.526 C 124.148 116.017,124.449 115.600,124.339 115.600 C 124.229 115.600,123.729 116.037,123.227 116.571 M249.701 119.800 C 249.705 120.680,249.787 120.993,249.883 120.495 C 249.979 119.998,249.975 119.278,249.875 118.895 C 249.775 118.513,249.696 118.920,249.701 119.800 M122.400 120.249 C 122.400 120.929,123.902 122.103,124.477 121.873 C 124.826 121.733,124.775 121.653,124.323 121.632 C 123.950 121.614,123.365 121.200,123.023 120.711 C 122.680 120.222,122.400 120.014,122.400 120.249 M112.482 124.876 L 112.400 128.752 110.900 128.909 L 109.400 129.066 110.913 129.133 C 112.796 129.216,112.867 129.035,112.699 124.568 L 112.565 121.000 112.482 124.876 M142.707 128.290 C 143.426 128.379,144.506 128.377,145.107 128.286 C 145.708 128.195,145.120 128.122,143.800 128.124 C 142.480 128.126,141.988 128.201,142.707 128.290 M216.138 128.306 C 215.884 128.468,217.082 128.600,218.800 128.600 C 220.518 128.600,221.716 128.468,221.462 128.306 C 221.208 128.144,220.010 128.012,218.800 128.012 C 217.590 128.012,216.392 128.144,216.138 128.306 M250.700 129.082 C 251.195 129.178,252.005 129.178,252.500 129.082 C 252.995 128.987,252.590 128.909,251.600 128.909 C 250.610 128.909,250.205 128.987,250.700 129.082 M106.200 129.574 C 105.540 129.734,104.122 130.256,103.049 130.733 C 101.976 131.210,100.806 131.614,100.449 131.632 C 100.012 131.653,99.968 131.731,100.315 131.870 C 100.599 131.984,101.949 131.626,103.315 131.075 C 104.682 130.524,106.430 129.895,107.200 129.678 C 108.812 129.222,107.996 129.137,106.200 129.574 M254.600 129.600 C 255.040 129.789,255.850 129.938,256.400 129.932 L 257.400 129.920 256.400 129.600 C 255.850 129.424,255.040 129.274,254.600 129.268 L 253.800 129.256 254.600 129.600 M136.975 130.900 L 135.800 132.200 137.100 131.025 C 138.312 129.930,138.584 129.600,138.275 129.600 C 138.206 129.600,137.621 130.185,136.975 130.900 M225.200 131.000 C 225.946 131.770,226.647 132.400,226.757 132.400 C 226.867 132.400,226.346 131.770,225.600 131.000 C 224.854 130.230,224.153 129.600,224.043 129.600 C 223.933 129.600,224.454 130.230,225.200 131.000 M257.800 130.298 C 258.940 131.310,261.632 132.128,262.113 131.608 C 262.460 131.234,262.464 131.159,262.129 131.347 C 261.870 131.492,260.700 131.236,259.529 130.777 C 258.358 130.318,257.580 130.103,257.800 130.298 M209.320 137.600 C 209.320 138.810,209.395 139.305,209.487 138.700 C 209.578 138.095,209.578 137.105,209.487 136.500 C 209.395 135.895,209.320 136.390,209.320 137.600 M228.114 137.400 C 228.117 138.500,228.195 138.903,228.287 138.295 C 228.379 137.686,228.377 136.786,228.282 136.295 C 228.187 135.803,228.111 136.300,228.114 137.400 M94.200 137.200 C 93.859 137.860,93.669 138.400,93.779 138.400 C 93.889 138.400,94.259 137.860,94.600 137.200 C 94.941 136.540,95.131 136.000,95.021 136.000 C 94.911 136.000,94.541 136.540,94.200 137.200 M149.978 144.300 L 148.600 145.800 150.100 144.422 C 150.925 143.663,151.600 142.988,151.600 142.922 C 151.600 142.616,151.262 142.904,149.978 144.300 M211.801 143.934 C 212.460 144.668,213.360 145.455,213.800 145.683 C 214.240 145.911,214.420 145.940,214.200 145.748 C 213.980 145.555,213.080 144.768,212.201 143.999 L 210.602 142.600 211.801 143.934 M162.514 189.500 C 163.136 195.660,167.417 201.972,172.560 204.311 C 177.727 206.661,182.238 207.066,186.746 205.587 C 194.140 203.159,200.000 195.995,200.000 189.382 L 200.000 187.600 181.161 187.600 L 162.323 187.600 162.514 189.500 M199.457 188.700 C 199.348 189.085,199.140 190.030,198.993 190.800 C 198.137 195.301,193.610 202.400,191.596 202.400 C 191.410 202.400,191.012 202.625,190.713 202.900 C 189.783 203.755,188.446 204.400,187.605 204.400 C 187.162 204.400,186.800 204.563,186.800 204.761 C 186.800 205.841,176.963 205.839,175.820 204.759 C 175.611 204.562,175.026 204.400,174.520 204.400 C 174.014 204.400,173.600 204.264,173.600 204.098 C 173.600 203.931,173.015 203.539,172.300 203.225 C 170.621 202.489,166.311 198.179,165.575 196.500 C 165.261 195.785,164.869 195.200,164.702 195.200 C 164.536 195.200,164.400 194.786,164.400 194.280 C 164.400 193.774,164.238 193.189,164.041 192.980 C 163.844 192.771,163.603 191.880,163.506 191.000 C 163.409 190.120,163.191 189.085,163.022 188.700 C 162.732 188.039,163.743 188.000,181.184 188.000 C 198.583 188.000,199.642 188.041,199.457 188.700 M332.600 260.800 C 332.464 261.020,332.003 261.200,331.576 261.200 C 331.149 261.200,330.800 261.380,330.800 261.600 C 330.800 261.820,330.440 262.000,330.000 262.000 C 329.560 262.000,329.200 262.180,329.200 262.400 C 329.200 262.620,328.932 262.800,328.605 262.800 C 328.057 262.800,327.122 263.430,325.784 264.700 C 325.494 264.975,325.091 265.200,324.888 265.200 C 324.685 265.200,323.954 265.740,323.263 266.400 C 322.572 267.060,321.826 267.600,321.604 267.600 C 321.382 267.600,321.200 267.780,321.200 268.000 C 321.200 268.220,321.003 268.400,320.763 268.400 C 320.522 268.400,318.452 270.329,316.163 272.686 C 313.873 275.043,312.000 276.753,312.000 276.486 C 312.000 276.219,311.751 276.000,311.446 276.000 C 311.141 276.000,310.376 275.731,309.746 275.402 C 309.116 275.074,308.195 274.804,307.700 274.802 C 307.205 274.801,306.800 274.620,306.800 274.400 C 306.800 274.180,306.350 274.000,305.800 274.000 C 305.250 274.000,304.800 273.820,304.800 273.600 C 304.800 273.380,304.170 273.200,303.400 273.200 C 302.630 273.200,302.000 273.020,302.000 272.800 C 302.000 272.580,301.100 272.400,300.000 272.400 C 298.900 272.400,298.000 272.220,298.000 272.000 C 298.000 271.771,296.800 271.600,295.200 271.600 C 293.600 271.600,292.400 271.429,292.400 271.200 C 292.400 270.955,290.467 270.800,287.400 270.800 C 284.333 270.800,282.400 270.955,282.400 271.200 C 282.400 271.422,281.333 271.600,280.000 271.600 C 278.144 271.600,277.421 271.779,276.810 272.390 C 276.376 272.824,275.521 273.282,274.910 273.408 C 272.698 273.863,268.144 275.369,265.645 276.472 C 262.193 277.996,262.528 278.126,257.904 273.450 C 250.145 265.604,240.182 259.635,238.192 261.641 C 234.385 265.478,234.427 289.372,238.271 305.949 C 238.596 307.351,238.753 308.931,238.621 309.460 C 238.135 311.397,233.265 321.666,231.826 323.787 C 231.384 324.440,230.985 325.221,230.941 325.522 C 230.897 325.823,230.397 326.770,229.830 327.626 C 228.488 329.654,228.513 329.869,230.399 332.646 C 231.279 333.941,231.999 335.120,231.999 335.266 C 232.007 337.414,248.385 351.549,255.300 355.375 C 258.530 357.162,258.525 357.134,256.000 360.037 C 254.900 361.302,254.000 362.423,254.000 362.528 C 254.000 362.632,253.245 363.952,252.322 365.459 C 248.661 371.441,246.163 378.725,245.724 384.700 L 245.481 388.000 287.741 388.000 L 330.000 388.000 330.000 384.000 C 330.000 381.600,329.840 380.000,329.600 380.000 C 329.380 380.000,329.200 379.280,329.200 378.400 C 329.200 377.520,329.020 376.800,328.800 376.800 C 328.580 376.800,328.400 376.170,328.400 375.400 C 328.400 374.630,328.220 374.000,328.000 374.000 C 327.780 374.000,327.600 373.651,327.600 373.224 C 327.600 372.797,327.420 372.336,327.200 372.200 C 326.980 372.064,326.800 371.513,326.800 370.976 C 326.800 370.439,326.620 370.000,326.400 370.000 C 326.180 370.000,326.000 369.640,326.000 369.200 C 326.000 368.760,325.820 368.400,325.600 368.400 C 325.380 368.400,325.200 368.062,325.200 367.649 C 325.200 367.236,324.930 366.674,324.600 366.400 C 324.270 366.126,324.000 365.727,324.000 365.513 C 324.000 364.857,320.316 359.592,319.295 358.789 C 318.084 357.836,318.211 357.650,321.315 355.835 C 322.714 355.017,324.368 353.909,324.991 353.374 C 325.615 352.838,326.248 352.400,326.400 352.400 C 326.552 352.400,327.199 351.950,327.838 351.400 C 328.477 350.851,329.128 350.401,329.285 350.400 C 330.194 350.399,343.200 337.358,343.200 336.449 C 343.200 336.267,343.740 335.554,344.400 334.863 C 345.060 334.172,345.600 333.375,345.600 333.092 C 345.600 332.809,345.960 332.317,346.400 332.000 C 346.976 331.585,347.200 330.965,347.200 329.787 C 347.200 328.704,346.930 327.861,346.400 327.292 C 345.960 326.820,345.600 326.261,345.600 326.050 C 345.600 325.839,345.465 325.607,345.300 325.533 C 344.924 325.366,343.625 323.236,343.329 322.300 C 343.207 321.915,342.948 321.600,342.753 321.600 C 342.559 321.600,342.400 321.240,342.400 320.800 C 342.400 320.360,342.220 320.000,342.000 320.000 C 341.780 320.000,341.599 319.685,341.598 319.300 C 341.596 318.915,341.326 318.084,340.998 317.454 C 340.669 316.824,340.395 316.104,340.390 315.854 C 340.384 315.604,339.664 313.962,338.790 312.204 C 337.229 309.067,336.848 307.465,337.558 307.026 C 337.755 306.905,338.015 306.129,338.137 305.303 C 338.259 304.476,338.558 302.810,338.801 301.600 C 339.229 299.471,339.860 294.904,340.238 291.200 C 340.661 287.053,340.505 270.515,340.022 268.385 C 338.272 260.661,338.114 260.400,335.205 260.400 C 333.908 260.400,332.736 260.580,332.600 260.800 M268.126 319.250 C 274.287 322.423,272.376 331.204,265.526 331.199 C 259.232 331.193,257.131 322.403,262.719 319.455 C 264.049 318.754,266.949 318.644,268.126 319.250 M312.398 319.647 C 316.543 321.977,316.593 327.995,312.487 330.303 C 306.984 333.396,300.966 327.484,304.043 322.008 C 305.716 319.033,309.435 317.982,312.398 319.647 " stroke="none" fill="#fbb242" fill-rule="evenodd"></path><path id="path3" d="M168.200 71.043 C 165.877 73.006,153.319 81.200,152.635 81.200 C 152.580 81.200,149.694 82.820,146.222 84.800 C 142.750 86.780,139.827 88.400,139.727 88.400 C 139.626 88.400,138.759 88.940,137.800 89.600 C 136.841 90.260,135.945 90.800,135.810 90.800 C 135.332 90.800,129.364 94.967,126.600 97.230 C 117.255 104.883,113.455 112.233,112.865 123.800 L 112.600 129.000 111.200 129.097 C 108.841 129.261,105.511 130.092,103.202 131.091 C 101.994 131.614,100.652 131.950,100.222 131.837 C 99.661 131.691,98.786 132.254,97.149 133.816 C 95.890 135.017,94.941 136.000,95.040 136.000 C 95.139 136.000,94.941 136.540,94.600 137.200 C 94.259 137.860,93.833 138.400,93.653 138.400 C 93.172 138.400,92.065 142.636,91.824 145.400 C 91.438 149.820,92.501 155.653,94.040 157.562 C 94.348 157.944,94.641 158.457,94.691 158.702 C 94.769 159.082,95.619 159.949,99.006 163.100 C 99.301 163.375,99.736 163.600,99.971 163.600 C 100.207 163.600,100.400 163.752,100.400 163.937 C 100.400 164.320,103.092 165.662,105.228 166.344 C 106.014 166.595,108.039 166.800,109.728 166.800 L 112.800 166.800 112.800 168.426 C 112.800 169.321,112.973 170.375,113.184 170.769 C 113.395 171.164,113.611 172.142,113.665 172.943 C 113.719 173.744,113.907 174.400,114.082 174.400 C 114.257 174.400,114.400 174.940,114.400 175.600 C 114.400 176.260,114.580 176.800,114.800 176.800 C 115.020 176.800,115.200 177.340,115.200 178.000 C 115.200 178.660,115.380 179.200,115.600 179.200 C 115.820 179.200,116.000 179.639,116.000 180.176 C 116.000 180.713,116.180 181.264,116.400 181.400 C 116.620 181.536,116.800 181.997,116.800 182.424 C 116.800 182.851,116.980 183.200,117.200 183.200 C 117.420 183.200,117.600 183.472,117.600 183.805 C 117.600 184.138,117.768 184.723,117.974 185.105 C 118.179 185.487,118.583 186.385,118.871 187.100 C 119.160 187.815,119.498 188.400,119.623 188.400 C 119.748 188.400,120.098 189.030,120.400 189.800 C 120.702 190.570,121.096 191.200,121.275 191.200 C 121.454 191.200,121.600 191.470,121.600 191.800 C 121.600 192.130,121.780 192.400,122.000 192.400 C 122.220 192.400,122.400 192.636,122.400 192.925 C 122.400 193.213,122.760 193.836,123.200 194.308 C 123.640 194.780,124.000 195.444,124.000 195.783 C 124.000 196.122,124.144 196.400,124.320 196.400 C 124.496 196.400,125.125 197.165,125.717 198.100 C 126.309 199.035,127.740 200.813,128.897 202.050 C 130.054 203.288,131.475 204.818,132.055 205.450 C 132.635 206.083,133.666 207.022,134.346 207.538 C 135.026 208.054,136.252 209.089,137.070 209.838 C 137.887 210.587,138.719 211.200,138.918 211.200 C 139.116 211.200,139.783 211.740,140.400 212.400 C 141.017 213.060,141.743 213.600,142.014 213.600 C 142.284 213.600,142.797 213.929,143.153 214.330 C 143.509 214.732,144.385 215.316,145.100 215.628 C 145.815 215.940,146.400 216.298,146.400 216.423 C 146.400 216.548,147.022 216.895,147.782 217.193 C 148.542 217.491,149.071 217.885,148.958 218.068 C 148.845 218.250,149.000 218.400,149.301 218.400 C 149.603 218.400,150.595 218.760,151.506 219.200 C 152.416 219.640,153.440 220.000,153.781 220.000 C 154.121 220.000,154.400 220.180,154.400 220.400 C 154.400 220.620,154.741 220.800,155.157 220.800 C 156.286 220.800,156.400 221.492,156.400 228.346 L 156.400 234.627 161.425 245.414 C 164.188 251.346,167.090 257.550,167.873 259.200 C 171.095 265.991,172.756 269.517,173.717 271.600 C 174.274 272.810,175.715 275.870,176.918 278.400 C 178.122 280.930,179.492 283.855,179.963 284.900 C 180.969 287.131,181.597 287.288,182.359 285.500 C 182.664 284.785,183.968 281.978,185.257 279.262 C 186.545 276.547,187.600 274.266,187.600 274.195 C 187.600 274.124,188.696 271.756,190.035 268.933 C 194.768 258.956,195.616 257.166,197.160 253.900 C 198.018 252.085,199.168 249.610,199.716 248.400 C 200.264 247.190,201.743 244.040,203.003 241.400 C 206.216 234.665,206.094 235.163,206.020 229.129 C 205.939 222.538,206.193 220.800,207.235 220.800 C 207.645 220.800,208.570 220.441,209.290 220.001 C 210.011 219.562,210.915 219.202,211.300 219.201 C 211.685 219.201,212.000 219.020,212.000 218.800 C 212.000 218.580,212.345 218.400,212.767 218.400 C 213.188 218.400,213.593 218.233,213.667 218.030 C 213.740 217.826,214.070 217.601,214.400 217.530 C 214.730 217.458,215.291 217.085,215.647 216.700 C 216.003 216.315,216.588 216.000,216.947 216.000 C 217.306 216.000,217.600 215.820,217.600 215.600 C 217.600 215.380,217.870 215.200,218.200 215.200 C 218.530 215.200,218.800 215.020,218.800 214.800 C 218.800 214.580,219.070 214.400,219.400 214.400 C 219.730 214.400,220.000 214.220,220.000 214.000 C 220.000 213.780,220.178 213.600,220.395 213.600 C 220.613 213.600,221.168 213.285,221.629 212.900 C 223.242 211.553,224.211 210.767,225.587 209.688 C 227.436 208.237,236.000 199.630,236.000 199.222 C 236.000 199.045,236.630 198.213,237.400 197.372 C 238.170 196.531,238.800 195.692,238.800 195.506 C 238.800 195.155,240.397 192.755,240.868 192.396 C 241.016 192.284,241.260 191.699,241.412 191.096 C 241.563 190.493,241.847 190.000,242.043 190.000 C 242.240 190.000,242.400 189.640,242.400 189.200 C 242.400 188.760,242.580 188.400,242.800 188.400 C 243.020 188.400,243.200 188.130,243.200 187.800 C 243.200 187.470,243.380 187.200,243.600 187.200 C 243.820 187.200,244.000 186.750,244.000 186.200 C 244.000 185.650,244.180 185.200,244.400 185.200 C 244.620 185.200,244.800 184.739,244.800 184.176 C 244.800 183.596,244.973 183.260,245.200 183.400 C 245.426 183.540,245.600 183.212,245.600 182.647 C 245.600 182.097,245.780 181.536,246.000 181.400 C 246.220 181.264,246.400 180.713,246.400 180.176 C 246.400 179.639,246.580 179.200,246.800 179.200 C 247.020 179.200,247.200 178.660,247.200 178.000 C 247.200 177.340,247.380 176.800,247.600 176.800 C 247.820 176.800,248.000 176.271,248.000 175.624 C 248.000 174.977,248.180 174.336,248.400 174.200 C 248.620 174.064,248.800 173.344,248.800 172.600 C 248.800 171.856,248.980 171.136,249.200 171.000 C 249.420 170.864,249.600 169.863,249.600 168.776 L 249.600 166.800 253.120 166.800 C 255.056 166.800,256.811 166.651,257.020 166.470 C 257.229 166.288,258.165 165.899,259.100 165.606 C 260.035 165.312,260.800 164.921,260.800 164.736 C 260.800 164.551,261.070 164.400,261.400 164.400 C 261.730 164.400,262.000 164.209,262.000 163.976 C 262.000 163.743,262.160 163.652,262.356 163.773 C 263.096 164.230,267.467 159.315,268.787 156.541 C 269.505 155.034,270.252 153.487,270.446 153.105 C 270.945 152.126,270.903 142.000,270.400 142.000 C 270.180 142.000,270.000 141.735,270.000 141.411 C 270.000 140.606,268.318 137.200,267.920 137.200 C 267.744 137.200,267.600 136.965,267.600 136.678 C 267.600 135.405,262.923 131.424,261.892 131.820 C 261.573 131.942,260.342 131.609,259.156 131.080 C 256.506 129.897,253.703 129.200,251.594 129.200 L 250.000 129.200 249.992 125.900 C 249.980 121.441,248.970 113.583,247.689 108.000 L 247.368 106.600 236.584 106.339 C 230.653 106.195,225.080 105.966,224.200 105.830 C 220.989 105.333,217.244 104.484,212.600 103.199 C 197.472 99.011,181.608 87.300,172.097 73.300 C 169.556 69.558,169.794 69.696,168.200 71.043 M149.123 109.622 C 154.989 110.940,157.959 112.148,162.090 114.894 C 164.632 116.584,165.200 117.365,165.200 119.174 C 165.200 122.344,162.250 122.840,158.380 120.321 C 148.869 114.130,137.882 114.335,128.142 120.885 C 125.083 122.942,122.320 122.054,122.320 119.013 C 122.320 116.924,124.749 114.790,129.800 112.442 C 130.900 111.931,132.070 111.380,132.400 111.217 C 132.730 111.055,133.990 110.689,135.200 110.403 C 136.410 110.118,137.940 109.747,138.600 109.578 C 140.411 109.116,146.995 109.144,149.123 109.622 M224.705 109.807 C 230.174 110.948,235.961 113.571,238.655 116.131 C 242.567 119.850,238.772 123.939,234.272 120.853 C 224.709 114.294,213.357 114.152,203.922 120.474 C 200.530 122.746,197.908 122.439,197.361 119.706 C 196.168 113.739,213.492 107.467,224.705 109.807 M147.733 128.953 C 153.543 131.523,155.038 138.912,150.739 143.809 C 145.088 150.244,134.400 146.225,134.400 137.665 C 134.400 130.488,141.183 126.057,147.733 128.953 M222.136 128.599 C 230.987 132.297,229.888 144.872,220.545 146.811 C 213.667 148.239,207.631 141.530,209.670 134.723 C 211.150 129.783,217.502 126.663,222.136 128.599 M200.000 189.382 C 200.000 195.995,194.140 203.159,186.746 205.587 C 182.238 207.066,177.727 206.661,172.560 204.311 C 167.417 201.972,163.136 195.660,162.514 189.500 L 162.323 187.600 181.161 187.600 L 200.000 187.600 200.000 189.382 M237.949 261.464 C 237.453 262.065,237.478 262.080,238.212 261.623 C 238.879 261.208,239.416 261.233,241.196 261.762 C 242.389 262.116,243.194 262.255,242.983 262.071 C 242.588 261.724,239.620 260.800,238.903 260.800 C 238.680 260.800,238.251 261.099,237.949 261.464 M236.229 266.229 C 236.081 266.815,236.038 267.372,236.132 267.466 C 236.227 267.560,236.424 267.158,236.571 266.571 C 236.719 265.985,236.762 265.428,236.668 265.334 C 236.573 265.240,236.376 265.642,236.229 266.229 M249.200 265.725 C 249.200 265.824,249.861 266.409,250.668 267.025 C 251.476 267.641,252.011 267.941,251.856 267.691 C 251.540 267.179,249.200 265.447,249.200 265.725 M235.693 270.400 C 235.693 271.170,235.775 271.485,235.876 271.100 C 235.976 270.715,235.976 270.085,235.876 269.700 C 235.775 269.315,235.693 269.630,235.693 270.400 M257.614 273.010 C 259.036 274.556,260.282 275.764,260.381 275.695 C 260.481 275.627,259.318 274.362,257.796 272.885 L 255.028 270.200 257.614 273.010 M235.309 273.600 C 235.309 274.590,235.387 274.995,235.482 274.500 C 235.578 274.005,235.578 273.195,235.482 272.700 C 235.387 272.205,235.309 272.610,235.309 273.600 M274.800 272.854 C 270.177 274.114,265.600 275.772,265.600 276.185 C 265.600 276.267,267.355 275.720,269.500 274.971 C 271.645 274.221,273.760 273.600,274.200 273.590 C 274.640 273.580,275.450 273.314,276.000 273.000 C 277.142 272.347,276.807 272.307,274.800 272.854 M235.320 287.200 C 235.320 288.410,235.395 288.905,235.487 288.300 C 235.578 287.695,235.578 286.705,235.487 286.100 C 235.395 285.495,235.320 285.990,235.320 287.200 M235.701 291.000 C 235.705 291.880,235.787 292.193,235.883 291.695 C 235.979 291.198,235.975 290.478,235.875 290.095 C 235.775 289.713,235.696 290.120,235.701 291.000 M236.087 295.800 C 236.091 296.240,236.232 297.140,236.400 297.800 C 236.674 298.878,236.706 298.898,236.713 298.000 C 236.717 297.450,236.576 296.550,236.400 296.000 C 236.149 295.216,236.081 295.173,236.087 295.800 M236.868 300.800 C 236.888 301.839,237.518 303.546,237.532 302.600 C 237.538 302.160,237.389 301.440,237.200 301.000 C 236.989 300.510,236.861 300.432,236.868 300.800 M237.656 304.800 C 237.656 305.130,237.811 305.760,238.000 306.200 C 238.217 306.704,238.344 306.778,238.344 306.400 C 238.344 306.070,238.189 305.440,238.000 305.000 C 237.783 304.496,237.656 304.422,237.656 304.800 M234.278 318.605 C 233.912 319.372,233.695 320.000,233.796 320.000 C 234.070 320.000,235.284 317.551,235.101 317.368 C 235.014 317.281,234.644 317.838,234.278 318.605 M219.572 320.948 C 216.616 321.679,213.587 323.971,212.628 326.200 C 211.378 329.108,211.200 329.722,211.200 331.124 C 211.200 333.397,212.618 336.779,214.293 338.502 C 215.693 339.940,216.326 340.323,219.319 341.544 C 222.792 342.960,228.173 340.818,230.825 336.963 L 232.073 335.150 230.437 332.712 C 228.480 329.799,228.476 329.739,230.000 327.335 L 231.200 325.443 229.780 324.103 C 227.695 322.137,222.496 319.847,221.480 320.448 C 221.436 320.474,220.578 320.699,219.572 320.948 M108.000 334.800 C 108.000 344.577,108.120 345.320,109.475 343.965 C 109.868 343.572,113.932 343.622,116.200 344.049 C 116.979 344.196,117.003 343.955,117.107 334.700 L 117.214 325.200 112.607 325.200 L 108.000 325.200 108.000 334.800 M164.400 334.800 C 164.400 344.333,164.636 345.883,165.800 344.000 C 165.936 343.780,167.286 343.600,168.800 343.600 C 170.314 343.600,171.664 343.780,171.800 344.000 C 172.964 345.883,173.200 344.333,173.200 334.800 L 173.200 325.200 168.800 325.200 L 164.400 325.200 164.400 334.800 M237.183 341.300 C 238.164 342.345,239.019 343.200,239.083 343.200 C 239.384 343.200,239.066 342.841,237.300 341.183 L 235.400 339.400 237.183 341.300 M240.600 344.747 C 241.260 345.477,242.520 346.628,243.400 347.306 C 245.274 348.748,244.671 348.100,241.600 345.373 C 240.323 344.239,239.903 343.976,240.600 344.747 M245.213 348.716 C 245.226 349.010,245.527 349.244,249.200 351.807 C 252.088 353.822,251.319 353.024,247.900 350.458 C 246.415 349.344,245.206 348.560,245.213 348.716 M110.317 349.420 C 108.606 350.349,107.746 352.541,108.391 354.327 C 109.493 357.372,112.097 358.391,114.710 356.798 C 119.491 353.883,115.242 346.747,110.317 349.420 M166.705 349.426 C 163.736 351.037,163.784 355.440,166.787 356.993 C 168.972 358.123,171.487 357.352,172.593 355.213 C 174.577 351.376,170.499 347.368,166.705 349.426 M62.000 369.000 L 62.000 388.000 79.400 388.000 L 96.800 388.000 96.800 369.000 L 96.800 350.000 79.400 350.000 L 62.000 350.000 62.000 369.000 M252.800 354.179 C 252.800 354.289,253.340 354.659,254.000 355.000 C 254.660 355.341,255.200 355.531,255.200 355.421 C 255.200 355.311,254.660 354.941,254.000 354.600 C 253.340 354.259,252.800 354.069,252.800 354.179 M251.400 366.400 C 251.059 367.060,250.869 367.600,250.979 367.600 C 251.089 367.600,251.459 367.060,251.800 366.400 C 252.141 365.740,252.331 365.200,252.221 365.200 C 252.111 365.200,251.741 365.740,251.400 366.400 M247.049 375.815 C 246.912 376.173,246.815 376.766,246.834 377.133 C 246.853 377.500,247.027 377.269,247.221 376.620 C 247.598 375.358,247.465 374.733,247.049 375.815 M246.249 378.615 C 246.112 378.973,246.018 379.656,246.041 380.133 C 246.067 380.681,246.203 380.486,246.410 379.603 C 246.760 378.116,246.665 377.533,246.249 378.615 M245.324 385.800 C 245.326 387.120,245.401 387.612,245.490 386.893 C 245.579 386.174,245.577 385.094,245.486 384.493 C 245.395 383.892,245.322 384.480,245.324 385.800 " stroke="none" fill="#f9c8a6" fill-rule="evenodd"></path><path id="path4" d="M154.824 221.567 C 154.520 221.989,153.812 222.574,153.252 222.867 C 151.347 223.863,146.287 228.670,144.800 230.897 C 144.250 231.721,143.692 232.396,143.561 232.397 C 143.429 232.399,142.997 233.120,142.600 234.000 C 142.203 234.880,141.722 235.600,141.532 235.600 C 141.341 235.600,141.298 236.052,141.437 236.605 C 141.576 237.158,141.516 237.833,141.305 238.105 C 141.094 238.377,140.278 240.130,139.492 242.000 C 138.169 245.149,137.598 247.159,136.442 252.731 C 136.180 253.994,136.000 259.474,136.000 266.198 C 136.000 278.506,135.967 278.800,134.570 278.800 C 130.624 278.800,121.750 283.453,117.401 287.801 C 110.265 294.938,108.304 300.561,108.089 314.500 L 107.930 324.800 112.565 324.800 L 117.200 324.800 117.200 316.900 C 117.200 305.352,118.555 300.558,123.283 295.386 C 132.525 285.273,147.327 284.929,156.999 294.601 C 162.816 300.418,164.000 304.108,164.000 316.420 L 164.000 324.800 168.800 324.800 L 173.600 324.800 173.593 317.100 C 173.574 296.037,164.981 282.926,148.762 279.210 C 145.137 278.380,145.415 279.149,145.277 269.557 C 145.015 251.284,146.749 244.963,154.700 235.213 L 156.400 233.128 156.400 228.820 C 156.400 221.829,155.991 219.947,154.824 221.567 M206.673 221.353 C 206.523 221.745,206.400 224.675,206.400 227.864 L 206.400 233.663 208.346 235.932 C 211.324 239.403,214.800 245.350,214.800 246.972 C 214.800 247.291,214.959 247.651,215.154 247.771 C 216.825 248.804,217.185 255.702,217.171 286.400 L 217.157 316.200 214.745 317.380 C 210.757 319.332,207.063 324.096,206.530 327.975 C 206.381 329.058,206.436 329.256,206.761 328.800 C 206.996 328.470,207.191 327.830,207.194 327.379 C 207.211 325.033,210.712 320.271,213.886 318.276 C 219.206 314.932,226.812 315.411,231.517 319.387 C 232.241 319.999,232.933 320.400,233.054 320.279 C 233.355 319.979,230.146 317.676,228.300 316.868 L 226.800 316.211 226.800 287.690 C 226.800 251.901,226.457 248.447,222.037 239.667 C 221.409 238.420,220.896 236.868,220.898 236.217 C 220.899 235.566,220.697 234.966,220.450 234.883 C 220.203 234.801,220.000 234.523,219.999 234.267 C 219.999 234.010,219.459 233.170,218.800 232.400 C 218.141 231.630,217.601 230.873,217.601 230.717 C 217.600 230.364,213.527 226.342,211.002 224.200 C 209.965 223.320,208.878 222.375,208.587 222.100 C 208.295 221.825,207.879 221.600,207.662 221.600 C 207.445 221.600,207.195 221.384,207.107 221.120 C 207.009 220.828,206.840 220.919,206.673 221.353 M221.105 320.283 C 221.602 320.379,222.322 320.375,222.705 320.275 C 223.087 320.175,222.680 320.096,221.800 320.101 C 220.920 320.105,220.607 320.187,221.105 320.283 M206.093 331.200 C 206.093 331.970,206.175 332.285,206.276 331.900 C 206.376 331.515,206.376 330.885,206.276 330.500 C 206.175 330.115,206.093 330.430,206.093 331.200 M206.450 334.000 C 206.286 339.252,215.265 347.765,219.852 346.704 C 220.320 346.596,220.000 346.421,219.000 346.237 C 217.493 345.959,216.820 345.727,214.400 344.646 C 213.067 344.051,209.128 340.081,208.500 338.700 C 207.706 336.954,207.310 335.901,206.881 334.400 C 206.548 333.233,206.476 333.166,206.450 334.000 M234.400 339.917 C 234.400 340.775,230.797 343.934,228.668 344.943 C 227.825 345.342,227.225 345.758,227.335 345.868 C 227.727 346.260,230.464 344.665,232.427 342.900 C 234.525 341.014,235.547 339.600,234.814 339.600 C 234.586 339.600,234.400 339.742,234.400 339.917 M107.635 345.087 C 100.467 347.921,103.046 362.652,110.660 362.373 C 111.236 362.352,111.178 362.251,110.400 361.919 C 109.850 361.684,108.854 361.256,108.186 360.967 C 103.009 358.735,102.054 350.945,106.436 346.700 C 107.515 345.655,108.353 344.814,108.299 344.832 C 108.244 344.849,107.946 344.964,107.635 345.087 M118.508 346.487 C 123.655 351.634,121.588 360.333,114.871 361.788 C 113.097 362.173,113.526 362.525,115.352 362.183 C 118.640 361.566,122.000 357.038,122.000 353.223 C 122.000 350.218,120.217 346.773,117.977 345.450 C 116.907 344.818,116.979 344.957,118.508 346.487 M163.762 345.190 C 161.504 346.102,159.200 350.206,159.200 353.313 C 159.200 357.351,163.689 362.539,167.026 362.358 C 167.495 362.333,167.249 362.136,166.400 361.858 C 161.421 360.229,158.555 355.195,160.106 350.800 C 160.672 349.196,162.335 346.404,162.733 346.391 C 162.880 346.386,163.450 346.030,164.000 345.600 C 165.088 344.749,165.043 344.671,163.762 345.190 M173.400 345.445 C 173.840 345.786,174.477 346.275,174.816 346.533 C 176.854 348.078,178.511 352.761,177.672 354.603 C 177.412 355.172,177.200 356.001,177.200 356.445 C 177.200 357.578,173.092 361.598,171.926 361.606 C 171.417 361.609,170.730 361.787,170.400 362.000 C 169.432 362.626,170.965 362.509,172.580 361.834 C 175.549 360.593,178.400 356.337,178.400 353.144 C 178.400 350.181,174.954 344.765,173.099 344.813 C 172.823 344.820,172.957 345.102,173.400 345.445 M222.800 346.646 L 220.600 347.181 222.965 346.954 C 225.532 346.707,227.907 346.024,226.000 346.081 C 225.450 346.097,224.010 346.351,222.800 346.646 M107.709 353.200 C 107.709 354.190,107.787 354.595,107.882 354.100 C 107.978 353.605,107.978 352.795,107.882 352.300 C 107.787 351.805,107.709 352.210,107.709 353.200 " stroke="none" fill="#445cb4" fill-rule="evenodd"></path></g></svg>